<?xml version="1.0" standalone="no"?>
<!DOCTYPE svg PUBLIC "-//W3C//DTD SVG 1.1//EN" "http://www.w3.org/Graphics/SVG/1.1/DTD/svg11.dtd" >
<!--
2013-9-30: Created.
-->
<svg>
<metadata>
Created by iconfont
</metadata>
<defs>

<font id="iconfont" horiz-adv-x="1024" >
  <font-face
    font-family="iconfont"
    font-weight="500"
    font-stretch="normal"
    units-per-em="1024"
    ascent="896"
    descent="-128"
  />
    <missing-glyph />
    
    <glyph glyph-name="trust-dept" unicode="&#58880;" d="M44.969627 741.67692V828.56537C44.969627 865.795731 77.986974 895.986793 118.545483 895.986793h278.666408c40.611337 0 92.976849-24.366802 116.92103-54.148449l78.858631-98.140762z m0-51.507061h1011.255304c46.884633-0.092449 84.854582-42.262204 84.854581-94.125853v-583.350487c0-24.9347-8.901477-48.865674-24.815838-66.496937s-37.520913-27.536467-60.025536-27.536467H129.771381c-46.858219 0.145276-84.867789 42.209376-84.867789 94.099439z m0 0M243.892539 115.826504m-223.857613 0a223.857613 223.857613 0 1 1 447.715226 0 223.857613 223.857613 0 1 1-447.715226 0ZM243.892539-127.960379C109.445902-127.960379 0-18.620133 0 115.826504s109.379867 243.826504 243.826504 243.826504 243.826504-109.379867 243.826504-243.826504-109.313832-243.786883-243.760469-243.786883z m0 447.715225c-112.43067 0-203.901928-91.471258-203.901928-203.901928S131.461869-88.04901 243.892539-88.04901s203.901928 91.471258 203.901928 203.901928-91.471258 203.901928-203.901928 203.901928zM175.652286 217.255794a20.067944 20.067944 0 1 1 0-40.135887h93.373057l-135.8994-135.8994a20.050774 20.050774 0 0 1 28.355298-28.355298l135.8994 135.899401v-93.373058a20.048133 20.048133 0 1 1 40.096266 0V197.207661a20.048133 20.048133 0 0 1-20.048133 20.048133z m0 0"  horiz-adv-x="1141" />

    
    <glyph glyph-name="dept" unicode="&#58881;" d="M0.069187 734.309235V825.34591C0.069187 864.35372 34.662847 895.986163 77.157698 895.986163h291.970488c42.550201 0 97.415746-25.530121 122.503067-56.733602L574.25475 736.426367z m0-53.966109h1059.534607c49.122997-0.096862 88.905705-44.279884 88.905706-98.619605v-611.200778c0-26.125132-9.326451-51.198616-26.000595-69.671631s-39.312235-28.851112-62.891273-28.851112H88.919543C39.824221-127.847788 0-83.775466 0-29.40807z m0 0"  horiz-adv-x="1148" />

    
    <glyph glyph-name="folder-close" unicode="&#58882;" d="M1093.277383 721.174958h-453.378455v119.842075c0 42.464523-37.338748 54.93965-82.662154 54.939651H82.662155C37.338748 895.956684 0 883.467118 0 841.017033v-849.117202c0-52.441737 45.337845-119.842076 101.331528-119.842076h991.945855c55.993683 0 101.31709 67.443655 101.31709 119.842076V651.247829c0 52.456176-45.323407 69.927129-101.31709 69.927129z m0 0"  horiz-adv-x="1194" />

    
    <glyph glyph-name="folder-open" unicode="&#58883;" d="M1052.382109-54.289066a73.782247 73.782247 0 0 0-73.882184-73.710863H55.393792l129.261699 608.189571a73.668033 73.668033 0 0 0 73.682309 73.739416h849.466654a73.72514 73.72514 0 0 0 73.796523-73.668032zM203.029669 609.32285h830.906878v72.411679a73.825077 73.825077 0 0 1-73.825077 73.739416H516.975412v66.815192A73.796523 73.796523 0 0 1 443.150335 896H73.825077A73.796523 73.796523 0 0 1 0 822.289137v-876.59248l129.147485 589.843947a73.867907 73.867907 0 0 0 73.882184 73.767969z m0 0"  horiz-adv-x="1181" />

    
    <glyph glyph-name="role-root" unicode="&#58884;" d="M0.069187 734.309235V825.34591C0.069187 864.35372 34.662847 895.986163 77.157698 895.986163h291.970488c42.550201 0 97.415746-25.530121 122.503067-56.733602L574.25475 736.426367z m0-53.966109h1059.534607c49.122997-0.096862 88.905705-44.279884 88.905706-98.619605v-611.200778c0-26.125132-9.326451-51.198616-26.000595-69.671631s-39.312235-28.851112-62.891273-28.851112H88.919543C39.824221-127.847788 0-83.775466 0-29.40807z m0 0M715.009432 477.485906c0 85.529364-62.36545 154.841221-139.287911 154.84122s-139.287911-69.325694-139.287911-154.84122 62.379287-154.799708 139.301749-154.799708 139.274074 69.298019 139.274073 154.799708zM575.735359 322.686198c-128.190265 0-232.123456-86.650199-232.123457-193.544607s103.933191-116.123997 232.123457-116.123997 232.137294 9.229588 232.137293 116.123997-103.960866 193.544607-232.137293 193.544607z"  horiz-adv-x="1148" />

    
    <glyph glyph-name="role-groups" unicode="&#58885;" d="M0.069187 734.309235V825.34591C0.069187 864.35372 34.662847 895.986163 77.157698 895.986163h291.970488c42.550201 0 97.415746-25.530121 122.503067-56.733602L574.25475 736.426367z m0-53.966109h1059.534607c49.122997-0.096862 88.905705-44.279884 88.905706-98.619605v-611.200778c0-26.125132-9.326451-51.198616-26.000595-69.671631s-39.312235-28.851112-62.891273-28.851112H88.919543C39.824221-127.847788 0-83.775466 0-29.40807z m0 0M715.009432 477.485906c0 85.529364-62.36545 154.841221-139.287911 154.84122s-139.287911-69.325694-139.287911-154.84122 62.379287-154.799708 139.301749-154.799708 139.274074 69.298019 139.274073 154.799708zM575.735359 322.686198c-128.190265 0-232.123456-86.650199-232.123457-193.544607s103.933191-116.123997 232.123457-116.123997 232.137294 9.229588 232.137293 116.123997-103.960866 193.544607-232.137293 193.544607z"  horiz-adv-x="1148" />

    
    <glyph glyph-name="dept-virtual" unicode="&#58886;" d="M0.069187 734.309235V825.34591C0.069187 864.35372 34.662847 895.986163 77.157698 895.986163h291.970488c42.550201 0 97.415746-25.530121 122.503067-56.733602L574.25475 736.426367z m0-53.966109h1059.534607c49.122997-0.096862 88.905705-44.279884 88.905706-98.619605v-611.200778c0-26.125132-9.326451-51.198616-26.000595-69.671631s-39.312235-28.851112-62.891273-28.851112H88.919543C39.824221-127.847788 0-83.775466 0-29.40807z m0 0"  horiz-adv-x="1148" />

    
    <glyph glyph-name="trust-dept-virtual" unicode="&#58887;" d="M44.969627 741.67692V828.56537C44.969627 865.795731 77.986974 895.986793 118.545483 895.986793h278.666408c40.611337 0 92.976849-24.366802 116.92103-54.148449l78.858631-98.140762z m0-51.507061h1011.255304c46.884633-0.092449 84.854582-42.262204 84.854581-94.125853v-583.350487c0-24.9347-8.901477-48.865674-24.815838-66.496937s-37.520913-27.536467-60.025536-27.536467H129.771381c-46.858219 0.145276-84.867789 42.209376-84.867789 94.099439z m0 0M243.892539 115.826504m-223.857613 0a223.857613 223.857613 0 1 1 447.715226 0 223.857613 223.857613 0 1 1-447.715226 0ZM243.892539-127.960379C109.445902-127.960379 0-18.620133 0 115.826504s109.379867 243.826504 243.826504 243.826504 243.826504-109.379867 243.826504-243.826504-109.313832-243.786883-243.760469-243.786883z m0 447.715225c-112.43067 0-203.901928-91.471258-203.901928-203.901928S131.461869-88.04901 243.892539-88.04901s203.901928 91.471258 203.901928 203.901928-91.471258 203.901928-203.901928 203.901928zM175.652286 217.255794a20.067944 20.067944 0 1 1 0-40.135887h93.373057l-135.8994-135.8994a20.050774 20.050774 0 0 1 28.355298-28.355298l135.8994 135.899401v-93.373058a20.048133 20.048133 0 1 1 40.096266 0V197.207661a20.048133 20.048133 0 0 1-20.048133 20.048133z m0 0"  horiz-adv-x="1141" />

    
    <glyph glyph-name="third-party" unicode="&#58888;" d="M0.069187 734.309235V825.34591C0.069187 864.35372 34.662847 895.986163 77.157698 895.986163h291.970488c42.550201 0 97.415746-25.530121 122.503067-56.733602L574.25475 736.426367z m0-53.966109h1059.534607c49.122997-0.096862 88.905705-44.279884 88.905706-98.619605v-611.200778c0-26.125132-9.326451-51.198616-26.000595-69.671631s-39.312235-28.851112-62.891273-28.851112H88.919543C39.824221-127.847788 0-83.775466 0-29.40807z m0 0"  horiz-adv-x="1148" />

    
    <glyph glyph-name="dept-new" unicode="&#58889;" d="M1093.277383 721.174958h-453.378455v119.842075c0 42.464523-37.338748 54.93965-82.662154 54.939651H82.662155C37.338748 895.956684 0 883.467118 0 841.017033v-849.117202c0-52.441737 45.337845-119.842076 101.331528-119.842076h991.945855c55.993683 0 101.31709 67.443655 101.31709 119.842076V651.247829c0 52.456176-45.323407 69.927129-101.31709 69.927129z m0 0M1197.655499 332.742245L644.764805-128H1036.287422l161.368077 161.382516V332.742245zM1197.655499 354.443768L618.731641-128h67.660237l509.617597 424.68855v-241.532318L1012.882121-128h61.249407l123.523971 123.538409V354.443768z"  horiz-adv-x="1197" />

    
    <glyph glyph-name="file" unicode="&#58890;" d="M659.846917 896v-270.343313c0-20.373732 15.997322-36.82812 35.708308-36.82812h260.070747v-680.343246c0-20.110919-16.180148-36.462467-35.891134-36.462468H104.157089a35.125548 35.125548 0 0 0-25.355755 10.581086 36.885254 36.885254 0 0 0-10.558233 25.858528V859.548959C68.243101 879.659878 84.411823 896 104.134235 896zM265.467227 691.2v-102.394287h295.756201v102.394287z m0-204.8v-102.394287h492.946046v102.405714z m0-204.8v-102.394287h492.946046v102.394287zM764.526536 894.617374l190.208157-197.201272a3.702237 3.702237 0 0 0 0.742733-3.96505 3.576544 3.576544 0 0 0-3.279451-2.285332H794.133008a35.319801 35.319801 0 0 0-25.252915 10.706779 37.045227 37.045227 0 0 0-10.46682 25.904235V892.057803a3.667957 3.667957 0 0 0 2.216772 3.427997 3.519411 3.519411 0 0 0 3.896491-0.811292z m0 0"  horiz-adv-x="1024" />

    
    <glyph glyph-name="data-base" unicode="&#58891;" d="M511.983838 895.97691C248.058338 895.97691 34.144879 824.399197 34.144879 736.000722v-127.985569c0-88.398476 213.913459-159.976189 477.838959-159.976189s477.838959 71.577713 477.838959 159.976189V736.000722C989.822797 824.399197 775.897793 895.97691 511.983838 895.97691z m0-543.990619C248.058338 351.986291 34.144879 423.633272 34.144879 511.985569v-191.966809C34.144879 231.666464 248.058338 160.019482 511.983838 160.019482s477.838959 71.646982 477.838959 159.999278v191.989899c0-88.352297-213.925004-159.999278-477.838959-159.999279z m0-287.996393C248.058338 63.989898 34.144879 135.63688 34.144879 223.989177v-191.989899c0-88.352297 213.913459-159.999278 477.838959-159.999278s477.838959 71.670071 477.838959 160.022368V224.06999c0-88.398476-213.925004-160.057002-477.838959-160.057002z"  horiz-adv-x="1024" />

    
    <glyph glyph-name="data-sheet" unicode="&#58892;" d="M659.832933 896v-270.370979c0-20.376049 15.990173-36.834505 35.703771-36.834506h260.080161v-680.336167c0-20.113353-16.184339-36.457594-35.886516-36.457594H104.140163a35.132694 35.132694 0 0 0-25.355846 10.576357A36.880191 36.880191 0 0 0 68.253646-91.541652V859.542406C68.253646 879.655759 84.426564 896 104.140163 896zM204.786879 8.545408h136.533233V486.400302H204.786879z m218.448604 0.902303h109.235723V417.128589h-109.224302z m218.460025 0h109.224302v271.147645h-109.21288z m122.850214 885.170281l190.180262-197.204517a3.712004 3.712004 0 0 0 0.742401-3.963278 3.574946 3.574946 0 0 0-3.277985-2.284311h-158.07428a35.32686 35.32686 0 0 0-25.253052 10.713416 37.051515 37.051515 0 0 0-10.45072 25.846972V892.059565a3.666318 3.666318 0 0 0 2.227203 3.426465 3.506416 3.506416 0 0 0 3.883328-0.81093z m0 0"  horiz-adv-x="1024" />

    
    <glyph glyph-name="trust-platform" unicode="&#58893;" d="M1022.180701 121.018272H738.688696v-119.29027h62.719352a31.791262 31.791262 0 0 0 28.046427-14.607513 28.404975 28.404975 0 0 0 0-30.450027 31.963896 31.963896 0 0 0-28.046427-14.607514H424.706825c-17.343103 0-31.353037 13.359235-31.353036 29.732931s14.009934 29.73293 31.353036 29.73293h62.732632v119.383227H172.634255c-69.372411 0-125.571501 53.383823-125.571501 119.29027V776.829246C47.062754 842.629456 103.394639 896 172.634255 896h849.546446c69.372411 0 125.451985-53.264307 125.5715-119.170754v-536.494145c0-65.80021-56.19909-119.303549-125.5715-119.303549zM109.728988 299.907199v-59.758011c0-32.893465 28.033147-59.585377 62.732632-59.585377h849.586285c34.686206 0 62.852148 26.811428 62.852148 59.585377v59.758011z m0 0M245.233598 117.167201m-225.088508 0a225.088509 225.088509 0 1 1 450.177017 0 225.088509 225.088509 0 1 1-450.177017 0ZM245.233598-127.960161C110.047697-127.960161 0-18.0187 0 117.167201s109.9813 245.167201 245.167201 245.1672 245.167201-109.9813 245.1672-245.1672-109.914902-245.127362-245.100803-245.127362z m0 450.177017c-113.048878 0-205.023097-91.974219-205.023096-205.023096s91.974219-205.023097 205.023096-205.023097 205.023097 91.974219 205.023097 205.023097-91.974219 205.023097-205.023097 205.023096zM176.618122 219.154206a20.178288 20.178288 0 1 1 0-40.356577h93.886475l-136.646652-136.646652a20.161025 20.161025 0 0 1 28.511211-28.511211l136.646652 136.646652v-93.886475a20.158369 20.158369 0 1 1 40.316739 0V198.995837a20.158369 20.158369 0 0 1-20.15837 20.158369z m0 0"  horiz-adv-x="1147" />

    
    <glyph glyph-name="posts-head" unicode="&#58894;" d="M48.196503 479.924481h95.96147a48.085537 48.085537 0 0 1 0 96.171074H48.196503a48.085537 48.085537 0 0 1 0-96.171074z m143.886722-240.033136a48.085537 48.085537 0 0 1-48.085537 48.085537H48.085537a48.085537 48.085537 0 0 1 0-96.171074h95.96147a48.184174 48.184174 0 0 1 48.085536 48.085537zM960.058566 896H160.100178a64.003082 64.003082 0 0 1-63.978423-63.990753v-240.033136h48.085537a63.996918 63.996918 0 0 0 0-127.993835h-48.085537v-159.976882h48.085537a63.990753 63.990753 0 0 0 0-127.981505h-48.085537v-240.033136a64.003082 64.003082 0 0 1 63.978423-63.990753h799.958388a64.003082 64.003082 0 0 1 63.978423 63.990753V832.009247A64.003082 64.003082 0 0 1 960.058566 896zM575.583875 75.981313c-19.271204 0-181.245485 88.440399-181.245485 112.409189s125.971777 382.218369 125.971777 382.21837l-103.18663 128.46236s-15.190098 28.543081 30.380196 28.543082h258.009728c45.619612 0 22.723499-28.543081 22.723499-28.543082l-97.576651-128.46236s125.984106-360.851129 125.984107-382.21837-161.789337-112.409189-181.060541-112.409189z"  horiz-adv-x="1024" />

    
    <glyph glyph-name="org" unicode="&#58895;" d="M1140.480215-61.331364h-36.399093V496.366387c0 33.334318-18.114776 49.923228-54.526911 49.923228H885.777854v-591.032069l-9.050867-8.268372h-72.641688V837.795359C804.085299 871.129677 767.673165 896 731.26103 896h-582.04641c-27.387351 0-45.476044-8.281413-54.526911-25.039863-18.114776-16.575868-18.114776-33.334318-18.114776-49.923228v-882.368273H31.136014c-18.101735 0-27.387351-8.281413-27.387351-25.039863-9.050867-16.575868 0-25.039863 9.063909-33.334318s18.114776-8.294455 36.412135-8.294455h1091.255508c18.114776 0 27.387351 8.294455 27.387351 25.039863 9.063909 16.58891-9.050867 41.628773-27.387351 41.628773zM585.795073 121.746555H294.863159v66.668636h290.931914z m0 174.75738H294.863159v66.69472h290.931914z m0 183.234418H294.863159v66.707761h290.931914z m0 174.75738H312.977935c-9.050867 0-9.050867 0-9.050867 8.294455-9.050867 25.026822-9.050867 41.615731-9.050867 58.36114h290.918872z m0 0"  horiz-adv-x="1170" />

    
    <glyph glyph-name="posts" unicode="&#58896;" d="M0 896m96.50264 0l1076.51727 0q96.50264 0 96.50264-96.50264l0-705.282436q0-96.50264-96.50264-96.50264l-1076.51727 0q-96.50264 0-96.50264 96.50264l0 705.282436q0 96.50264 96.50264 96.50264ZM1022.726822 313.570016H842.032287a45.177176 45.177176 0 0 1 0-90.340185h180.694535a45.177176 45.177176 0 0 1 0 90.340185z m0 180.694536H842.032287a45.177176 45.177176 0 1 1 0-90.340185h180.694535a45.177176 45.177176 0 0 1 0 90.340185z m-180.694535 90.340184h180.694535a45.177176 45.177176 0 0 1 0 90.340185H842.032287a45.177176 45.177176 0 1 1 0-90.340185z m-212.937638 39.666382c0 99.817617-72.787811 180.737035-162.575499 180.737035s-162.603832-80.976085-162.603832-180.793701 72.801977-180.751202 162.589665-180.751202 162.589666 80.933585 162.589666 180.751202zM466.51915 443.46325c-149.655592 0-270.992221-101.16344-270.992221-225.942545s121.336629-135.55986 270.992221-135.559859 270.978054 10.809089 270.978054 135.574026-121.336629 225.928378-270.978054 225.928378z"  horiz-adv-x="1447" />

    
    <glyph glyph-name="trust-posts" unicode="&#58897;" d="M48.176517 896m96.492769 0l1028.54322 0q96.492769 0 96.492768-96.492769l0-705.210287q0-96.492769-96.492768-96.492769l-1028.54322 0q-96.492769 0-96.492769 96.492769l0 705.210287q0 96.492769 96.492769 96.492769ZM1022.920628 313.629596H842.244576a45.172554 45.172554 0 0 1 0-90.330943h180.676052a45.172554 45.172554 0 0 1 0 90.330943z m0 180.676051H842.244576a45.172554 45.172554 0 1 1 0-90.330943h180.676052a45.172554 45.172554 0 0 1 0 90.330943z m-180.676052 90.330944h180.676052a45.172554 45.172554 0 0 1 0 90.330943H842.244576a45.172554 45.172554 0 1 1 0-90.330943z m-212.915855 39.662324c0 99.807406-72.780365 180.718547-162.558868 180.718547s-162.587199-80.967802-162.587199-180.775208 72.79453-180.732712 162.573034-180.732712 162.573034 80.925306 162.573033 180.732712zM466.769853 443.509542c-149.640283 0-270.964499-101.153092-270.964499-225.919431s121.324216-135.545993 270.964499-135.545993 270.950334 10.807983 270.950334 135.560158-121.324216 225.905266-270.950334 225.905266zM261.588151 147.189486m-240.098712 0a240.098712 240.098712 0 1 1 480.197424 0 240.098712 240.098712 0 1 1-480.197424 0ZM261.588151-114.284386C117.387273-114.284386 0.000959 2.988607 0.000959 147.189486s117.315489 261.516367 261.516367 261.516367 261.516367-117.315489 261.516367-261.516367-117.244663-261.473872-261.445542-261.473872z m0 480.197424c-120.58763 0-218.695222-98.107592-218.695222-218.695222S141.000521-71.477406 261.588151-71.477406s218.695222 98.107592 218.695222 218.695222-98.107592 218.695222-218.695222 218.695222zM188.396998 255.977575a21.523893 21.523893 0 1 1 0-43.047787h100.147368l-145.759041-145.759041a21.505479 21.505479 0 0 1 30.412504-30.412504l145.759041 145.759042v-100.147369a21.502646 21.502646 0 1 1 43.005291 0V234.474929a21.502646 21.502646 0 0 1-21.502645 21.502646z m0 0"  horiz-adv-x="1286" />

    
    <glyph glyph-name="posts-new" unicode="&#58898;" d="M0 896m96.063223 0l1071.615432 0q96.063223 0 96.063223-96.063223l0-710.320691q0-96.063223-96.063223-96.063223l-1071.615432 0q-96.063223 0-96.063223 96.063223l0 710.320691q0 96.063223 96.063223 96.063223ZM1263.75598 441.941918l-539.981925-449.99669h382.377318l157.604607 157.618709V441.941918zM1263.75598 463.137312L698.348043-8.054772h66.082247l497.732157 414.78385v-235.899236L1083.291936-8.054772h59.835035l120.629009 120.657214V463.137312zM1018.069915 316.222066H838.198158a44.971465 44.971465 0 0 1 0-89.928828h179.871757a44.971465 44.971465 0 0 1 0 89.928828z m0 179.871757H838.198158a44.971465 44.971465 0 1 1 0-89.928828h179.871757a44.971465 44.971465 0 0 1 0 89.928828z m-179.871757 89.928827h179.871757a44.971465 44.971465 0 0 1 0 89.928828H838.198158a44.971465 44.971465 0 1 1 0-89.928828z m-211.968043 39.485764c0 99.363105-72.456377 179.914063-161.835224 179.914064s-161.863428-80.607367-161.863428-179.970472 72.470479-179.928165 161.849326-179.928165 161.849326 80.565061 161.849326 179.928165zM464.394891 445.523841c-148.974147 0-269.758279-100.7028-269.758278-224.913733s120.784132-134.942599 269.758278-134.942598 269.744177 10.759871 269.744177 134.9567-120.784132 224.89963-269.744177 224.899631z"  horiz-adv-x="1431" />

    
    <glyph glyph-name="male" unicode="&#58899;" d="M761.526819 639.990766C761.526819 781.434236 649.780567 896 511.993844 896S262.52243 781.434236 262.52243 639.990766 374.219433 383.993844 511.993844 383.993844s249.532975 114.639637 249.532975 255.996922zM511.993844 384.006156C282.39445 384.006156 96.195842 240.740468 96.195842 63.997691S282.39445-128 511.993844-128s415.748753 15.267227 415.748752 191.997691S741.60555 384.006156 511.993844 384.006156z"  horiz-adv-x="1024" />

    
    <glyph glyph-name="head-male" unicode="&#58900;" d="M761.526819 639.990766C761.526819 781.434236 649.780567 896 511.993844 896S262.52243 781.434236 262.52243 639.990766 374.219433 383.993844 511.993844 383.993844s249.532975 114.639637 249.532975 255.996922zM511.993844 384.006156C282.39445 384.006156 96.195842 240.740468 96.195842 63.997691S282.39445-128 511.993844-128s415.748753 15.267227 415.748752 191.997691S741.60555 384.006156 511.993844 384.006156zM472.434489 379.807669l-79.537328-318.161623h238.624295l-79.537327 318.161623z"  horiz-adv-x="1024" />

    
    <glyph glyph-name="part-time-head-male" unicode="&#58901;" d="M692.410924 642.629C692.410924 782.614863 581.816243 896 445.449444 896S198.54889 782.614863 198.54889 642.629 309.09483 389.270185 445.449444 389.270185s246.96148 113.45825 246.96148 253.358815zM445.449444 389.28237C218.216124 389.28237 33.936336 247.493068 33.936336 72.571667S218.216124-117.447445 445.449444-117.447445s411.464366 15.109895 411.464366 190.019112S672.694949 389.28237 445.449444 389.28237zM406.297757 385.127149l-78.717677-314.882894h236.165217l-78.717678 314.882894zM765.084643 96.979021m-206.542512 0a206.542512 206.542512 0 1 1 413.085024 0 206.542512 206.542512 0 1 1-413.085024 0ZM765.084643-127.987815c-124.047361 0-224.991206 100.919474-224.991206 224.966836s100.943845 225.027762 224.991206 225.027762 224.966835-100.919474 224.966836-224.966835-100.919474-225.027762-224.966836-225.027763z m0 413.085024c-103.734301 0-188.130374-84.396073-188.130374-188.130374s84.396073-188.130374 188.130374-188.130374 188.093818 84.408258 188.093818 188.14256-84.359517 188.130374-188.093818 188.130374zM736.960743 243.825263m21.373189 0l0 0q21.37319 0 21.37319-21.373189l0-121.122866q0-21.37319-21.37319-21.37319l0 0q-21.37319 0-21.373189 21.37319l0 121.122866q0 21.37319 21.373189 21.373189ZM904.001119 71.021909m-7.109897-20.155957l0 0q-7.109898-20.155957-27.265855-13.046059l-114.22475 40.292122q-20.155957 7.109898-13.046059 27.265854l0 0q7.109898 20.155957 27.265854 13.046059l114.22475-40.292121q20.155957-7.109898 13.04606-27.265855Z"  horiz-adv-x="1024" />

    
    <glyph glyph-name="part-time-male" unicode="&#58902;" d="M692.410924 642.629C692.410924 782.614863 581.816243 896 445.449444 896S198.54889 782.614863 198.54889 642.629 309.09483 389.270185 445.449444 389.270185s246.96148 113.45825 246.96148 253.358815zM445.449444 389.28237C218.216124 389.28237 33.936336 247.493068 33.936336 72.571667S218.216124-117.447445 445.449444-117.447445s411.464366 15.109895 411.464366 190.019112S672.694949 389.28237 445.449444 389.28237zM765.084643 96.979021m-206.542512 0a206.542512 206.542512 0 1 1 413.085024 0 206.542512 206.542512 0 1 1-413.085024 0ZM765.084643-127.987815c-124.047361 0-224.991206 100.919474-224.991206 224.966836s100.943845 225.027762 224.991206 225.027762 224.966835-100.919474 224.966836-224.966835-100.919474-225.027762-224.966836-225.027763z m0 413.085024c-103.734301 0-188.130374-84.396073-188.130374-188.130374s84.396073-188.130374 188.130374-188.130374 188.093818 84.408258 188.093818 188.14256-84.359517 188.130374-188.093818 188.130374zM736.960743 243.825263m21.373189 0l0 0q21.37319 0 21.37319-21.373189l0-121.122866q0-21.37319-21.37319-21.37319l0 0q-21.37319 0-21.373189 21.37319l0 121.122866q0 21.37319 21.373189 21.373189ZM904.001119 71.021909m-7.109897-20.155957l0 0q-7.109898-20.155957-27.265855-13.046059l-114.22475 40.292122q-20.155957 7.109898-13.046059 27.265854l0 0q7.109898 20.155957 27.265854 13.046059l114.22475-40.292121q20.155957-7.109898 13.04606-27.265855Z"  horiz-adv-x="1024" />

    
    <glyph glyph-name="trust-male" unicode="&#58903;" d="M826.079992 642.848909C826.079992 782.713273 715.5813 896 579.332858 896S332.646597 782.713273 332.646597 642.848909s110.449993-253.138917 246.686261-253.138917 246.747135 113.359776 246.747134 253.138917zM579.332858 389.722167c-227.036096 0-411.155942-141.666239-411.155943-316.435821S352.296761-116.567841 579.332858-116.567841s411.107243 15.09678 411.107243 189.854187-184.058972 316.435821-411.107243 316.435821zM258.331479 96.771579m-206.363248 0a206.363247 206.363247 0 1 1 412.726495 0 206.363247 206.363247 0 1 1-412.726495 0ZM258.331479-127.963476C134.391782-127.963476 33.499025-27.168117 33.499025 96.771579s100.831883 224.771579 224.771579 224.77158 224.771579-100.831883 224.77158-224.77158-100.771009-224.735055-224.710705-224.735055z m0 412.726495c-103.644267 0-187.96709-84.322823-187.96709-187.96709s84.322823-187.96709 187.96709-187.96709 187.96709 84.322823 187.96709 187.96709-84.322823 187.96709-187.96709 187.96709zM195.424169 190.274219a18.499643 18.499643 0 1 1 0-36.999287h86.075997l-125.278927-125.278927a18.483816 18.483816 0 0 1 26.139345-26.139345l125.278927 125.278928v-86.075998a18.481381 18.481381 0 1 1 36.962762 0V171.792838a18.481381 18.481381 0 0 1-18.481381 18.481381z m0 0"  horiz-adv-x="1024" />

    
    <glyph glyph-name="trust-pt-male" unicode="&#58904;" d="M792.580967 642.848909C792.580967 782.713273 682.082275 896 545.833833 896S299.147572 782.713273 299.147572 642.848909s110.449993-253.138917 246.686261-253.138917 246.747135 113.359776 246.747134 253.138917zM545.833833 389.722167c-227.036096 0-411.155942-141.666239-411.155943-316.435821S318.797736-116.567841 545.833833-116.567841s411.107243 15.09678 411.107243 189.854187-184.058972 316.435821-411.107243 316.435821zM224.832454 96.771579m-206.363248 0a206.363247 206.363247 0 1 1 412.726495 0 206.363247 206.363247 0 1 1-412.726495 0ZM224.832454-127.963476C100.892757-127.963476 0-27.168117 0 96.771579s100.831883 224.771579 224.771579 224.77158 224.771579-100.831883 224.77158-224.77158-100.771009-224.735055-224.710705-224.735055z m0 412.726495c-103.644267 0-187.96709-84.322823-187.96709-187.96709s84.322823-187.96709 187.96709-187.96709 187.96709 84.322823 187.967089 187.96709-84.322823 187.96709-187.967089 187.96709zM161.925144 190.274219a18.499643 18.499643 0 1 1 0-36.999287h86.075997l-125.278927-125.278927a18.483816 18.483816 0 0 1 26.139345-26.139345l125.278927 125.278928v-86.075998a18.481381 18.481381 0 1 1 36.962762 0V171.792838a18.481381 18.481381 0 0 1-18.481381 18.481381z m0 0M865.191611 97.672516m-206.363247 0a206.363247 206.363247 0 1 1 412.726494 0 206.363247 206.363247 0 1 1-412.726494 0ZM865.191611-127.099063c-123.939697 0-224.795929 100.831883-224.795929 224.771579s100.856232 224.832454 224.795929 224.832454 224.771579-100.831883 224.771579-224.77158-100.831883-224.832454-224.771579-224.832453z m0 412.726494c-103.644267 0-187.96709-84.322823-187.96709-187.96709s84.322823-187.96709 187.96709-187.967089 187.930565 84.334998 187.930565 187.979264-84.286299 187.96709-187.930565 187.96709zM837.09212 244.391306m21.354639 0l0 0q21.354639 0 21.354639-21.354639l0-121.017739q0-21.354639-21.354639-21.354639l0 0q-21.354639 0-21.354639 21.354639l0 121.017739q0 21.354639 21.354639 21.354639ZM1003.987775 71.737568m-7.103726-20.138462l0 0q-7.103727-20.138463-27.24219-13.034737l-114.125611 40.257151q-20.138463 7.103727-13.034736 27.24219l0 0q7.103727 20.138463 27.24219 13.034736l114.12561-40.257151q20.138463-7.103727 13.034737-27.242189Z"  horiz-adv-x="1089" />

    
    <glyph glyph-name="trust-pt-female" unicode="&#58905;" d="M792.580967 642.848909C792.580967 782.713273 682.082275 896 545.833833 896S299.147572 782.713273 299.147572 642.848909s110.449993-253.138917 246.686261-253.138917 246.747135 113.359776 246.747134 253.138917zM545.833833 389.722167c-227.036096 0-411.155942-141.666239-411.155943-316.435821S318.797736-116.567841 545.833833-116.567841s411.107243 15.09678 411.107243 189.854187-184.058972 316.435821-411.107243 316.435821zM224.832454 96.771579m-206.363248 0a206.363247 206.363247 0 1 1 412.726495 0 206.363247 206.363247 0 1 1-412.726495 0ZM224.832454-127.963476C100.892757-127.963476 0-27.168117 0 96.771579s100.831883 224.771579 224.771579 224.77158 224.771579-100.831883 224.77158-224.77158-100.771009-224.735055-224.710705-224.735055z m0 412.726495c-103.644267 0-187.96709-84.322823-187.96709-187.96709s84.322823-187.96709 187.96709-187.96709 187.96709 84.322823 187.967089 187.96709-84.322823 187.96709-187.967089 187.96709zM161.925144 190.274219a18.499643 18.499643 0 1 1 0-36.999287h86.075997l-125.278927-125.278927a18.483816 18.483816 0 0 1 26.139345-26.139345l125.278927 125.278928v-86.075998a18.481381 18.481381 0 1 1 36.962762 0V171.792838a18.481381 18.481381 0 0 1-18.481381 18.481381z m0 0M865.191611 97.672516m-206.363247 0a206.363247 206.363247 0 1 1 412.726494 0 206.363247 206.363247 0 1 1-412.726494 0ZM865.191611-127.099063c-123.939697 0-224.795929 100.831883-224.795929 224.771579s100.856232 224.832454 224.795929 224.832454 224.771579-100.831883 224.771579-224.77158-100.831883-224.832454-224.771579-224.832453z m0 412.726494c-103.644267 0-187.96709-84.322823-187.96709-187.96709s84.322823-187.96709 187.96709-187.967089 187.930565 84.334998 187.930565 187.979264-84.286299 187.96709-187.930565 187.96709zM837.09212 244.391306m21.354639 0l0 0q21.354639 0 21.354639-21.354639l0-121.017739q0-21.354639-21.354639-21.354639l0 0q-21.354639 0-21.354639 21.354639l0 121.017739q0 21.354639 21.354639 21.354639ZM1003.987775 71.737568m-7.103726-20.138462l0 0q-7.103727-20.138463-27.24219-13.034737l-114.125611 40.257151q-20.138463 7.103727-13.034736 27.24219l0 0q7.103727 20.138463 27.24219 13.034736l114.12561-40.257151q20.138463-7.103727 13.034737-27.242189Z"  horiz-adv-x="1089" />

    
    <glyph glyph-name="trust-female" unicode="&#58906;" d="M826.079992 642.848909C826.079992 782.713273 715.5813 896 579.332858 896S332.646597 782.713273 332.646597 642.848909s110.449993-253.138917 246.686261-253.138917 246.747135 113.359776 246.747134 253.138917zM579.332858 389.722167c-227.036096 0-411.155942-141.666239-411.155943-316.435821S352.296761-116.567841 579.332858-116.567841s411.107243 15.09678 411.107243 189.854187-184.058972 316.435821-411.107243 316.435821zM258.331479 96.771579m-206.363248 0a206.363247 206.363247 0 1 1 412.726495 0 206.363247 206.363247 0 1 1-412.726495 0ZM258.331479-127.963476C134.391782-127.963476 33.499025-27.168117 33.499025 96.771579s100.831883 224.771579 224.771579 224.77158 224.771579-100.831883 224.77158-224.77158-100.771009-224.735055-224.710705-224.735055z m0 412.726495c-103.644267 0-187.96709-84.322823-187.96709-187.96709s84.322823-187.96709 187.96709-187.96709 187.96709 84.322823 187.96709 187.96709-84.322823 187.96709-187.96709 187.96709zM195.424169 190.274219a18.499643 18.499643 0 1 1 0-36.999287h86.075997l-125.278927-125.278927a18.483816 18.483816 0 0 1 26.139345-26.139345l125.278927 125.278928v-86.075998a18.481381 18.481381 0 1 1 36.962762 0V171.792838a18.481381 18.481381 0 0 1-18.481381 18.481381z m0 0"  horiz-adv-x="1024" />

    
    <glyph glyph-name="part-time-female" unicode="&#58907;" d="M692.410924 642.629C692.410924 782.614863 581.816243 896 445.449444 896S198.54889 782.614863 198.54889 642.629 309.09483 389.270185 445.449444 389.270185s246.96148 113.45825 246.96148 253.358815zM445.449444 389.28237C218.216124 389.28237 33.936336 247.493068 33.936336 72.571667S218.216124-117.447445 445.449444-117.447445s411.464366 15.109895 411.464366 190.019112S672.694949 389.28237 445.449444 389.28237zM765.084643 96.979021m-206.542512 0a206.542512 206.542512 0 1 1 413.085024 0 206.542512 206.542512 0 1 1-413.085024 0ZM765.084643-127.987815c-124.047361 0-224.991206 100.919474-224.991206 224.966836s100.943845 225.027762 224.991206 225.027762 224.966835-100.919474 224.966836-224.966835-100.919474-225.027762-224.966836-225.027763z m0 413.085024c-103.734301 0-188.130374-84.396073-188.130374-188.130374s84.396073-188.130374 188.130374-188.130374 188.093818 84.408258 188.093818 188.14256-84.359517 188.130374-188.093818 188.130374zM736.960743 243.825263m21.373189 0l0 0q21.37319 0 21.37319-21.373189l0-121.122866q0-21.37319-21.37319-21.37319l0 0q-21.37319 0-21.373189 21.37319l0 121.122866q0 21.37319 21.373189 21.373189ZM904.001119 71.021909m-7.109897-20.155957l0 0q-7.109898-20.155957-27.265855-13.046059l-114.22475 40.292122q-20.155957 7.109898-13.046059 27.265854l0 0q7.109898 20.155957 27.265854 13.046059l114.22475-40.292121q20.155957-7.109898 13.04606-27.265855Z"  horiz-adv-x="1024" />

    
    <glyph glyph-name="part-time-head-female" unicode="&#58908;" d="M692.410924 642.629C692.410924 782.614863 581.816243 896 445.449444 896S198.54889 782.614863 198.54889 642.629 309.09483 389.270185 445.449444 389.270185s246.96148 113.45825 246.96148 253.358815zM445.449444 389.28237C218.216124 389.28237 33.936336 247.493068 33.936336 72.571667S218.216124-117.447445 445.449444-117.447445s411.464366 15.109895 411.464366 190.019112S672.694949 389.28237 445.449444 389.28237zM406.297757 385.127149l-78.717677-314.882894h236.165217l-78.717678 314.882894zM765.084643 96.979021m-206.542512 0a206.542512 206.542512 0 1 1 413.085024 0 206.542512 206.542512 0 1 1-413.085024 0ZM765.084643-127.987815c-124.047361 0-224.991206 100.919474-224.991206 224.966836s100.943845 225.027762 224.991206 225.027762 224.966835-100.919474 224.966836-224.966835-100.919474-225.027762-224.966836-225.027763z m0 413.085024c-103.734301 0-188.130374-84.396073-188.130374-188.130374s84.396073-188.130374 188.130374-188.130374 188.093818 84.408258 188.093818 188.14256-84.359517 188.130374-188.093818 188.130374zM736.960743 243.825263m21.373189 0l0 0q21.37319 0 21.37319-21.373189l0-121.122866q0-21.37319-21.37319-21.37319l0 0q-21.37319 0-21.373189 21.37319l0 121.122866q0 21.37319 21.373189 21.373189ZM904.001119 71.021909m-7.109897-20.155957l0 0q-7.109898-20.155957-27.265855-13.046059l-114.22475 40.292122q-20.155957 7.109898-13.046059 27.265854l0 0q7.109898 20.155957 27.265854 13.046059l114.22475-40.292121q20.155957-7.109898 13.04606-27.265855Z"  horiz-adv-x="1024" />

    
    <glyph glyph-name="head-female" unicode="&#58909;" d="M761.526819 639.990766C761.526819 781.434236 649.780567 896 511.993844 896S262.52243 781.434236 262.52243 639.990766 374.219433 383.993844 511.993844 383.993844s249.532975 114.639637 249.532975 255.996922zM511.993844 384.006156C282.39445 384.006156 96.195842 240.740468 96.195842 63.997691S282.39445-128 511.993844-128s415.748753 15.267227 415.748752 191.997691S741.60555 384.006156 511.993844 384.006156zM472.434489 379.807669l-79.537328-318.161623h238.624295l-79.537327 318.161623z"  horiz-adv-x="1024" />

    
    <glyph glyph-name="female" unicode="&#58910;" d="M761.526819 639.990766C761.526819 781.434236 649.780567 896 511.993844 896S262.52243 781.434236 262.52243 639.990766 374.219433 383.993844 511.993844 383.993844s249.532975 114.639637 249.532975 255.996922zM511.993844 384.006156C282.39445 384.006156 96.195842 240.740468 96.195842 63.997691S282.39445-128 511.993844-128s415.748753 15.267227 415.748752 191.997691S741.60555 384.006156 511.993844 384.006156z"  horiz-adv-x="1024" />

    
    <glyph glyph-name="people" unicode="&#58911;" d="M761.526819 639.990766C761.526819 781.434236 649.780567 896 511.993844 896S262.52243 781.434236 262.52243 639.990766 374.219433 383.993844 511.993844 383.993844s249.532975 114.639637 249.532975 255.996922zM511.993844 384.006156C282.39445 384.006156 96.195842 240.740468 96.195842 63.997691S282.39445-128 511.993844-128s415.748753 15.267227 415.748752 191.997691S741.60555 384.006156 511.993844 384.006156z"  horiz-adv-x="1024" />

    
    <glyph glyph-name="unknown" unicode="&#58912;" d="M761.526819 639.990766C761.526819 781.434236 649.780567 896 511.993844 896S262.52243 781.434236 262.52243 639.990766 374.219433 383.993844 511.993844 383.993844s249.532975 114.639637 249.532975 255.996922zM511.993844 384.006156C282.39445 384.006156 96.195842 240.740468 96.195842 63.997691S282.39445-128 511.993844-128s415.748753 15.267227 415.748752 191.997691S741.60555 384.006156 511.993844 384.006156zM487.923337 530.879342q-0.246246 8.618596-0.246246 12.989455 0 25.486419 7.214996 44.004088a100.185021 100.185021 0 0 0 17.077132 28.13356q8.618596 10.342315 31.137756 30.177398t29.21704 31.617934a50.985151 50.985151 0 0 1 6.734817 25.732665q0 25.252486-19.699648 44.324207t-48.33801 19.120971q-27.65338 0-46.17105-17.311066t-24.292128-54.112469l-44.484267 5.29428q6.008393 49.249119 35.705612 75.511212t78.515408 26.212844q51.711575 0 82.492275-28.13356t30.7807-68.04997a86.185959 86.185959 0 0 0-10.822494-42.563551q-10.822494-19.478027-42.317306-47.377653-21.164809-18.751602-27.653381-27.653381a61.561399 61.561399 0 0 1-9.640515-20.36451q-3.127319-11.548918-3.607498-37.515517z m-2.64714-86.801573v49.24912h49.249119v-49.24912z"  horiz-adv-x="1024" />

    
    <glyph glyph-name="role" unicode="&#58913;" d="M1171.610049 200.023986H915.677117a63.983233 63.983233 0 0 1 0-127.966466H1171.610049a63.983233 63.983233 0 0 1 0 127.966466z m0 255.932932H915.677117a63.983233 63.983233 0 1 1 0-127.966466H1171.610049a63.983233 63.983233 0 1 1 0 127.966466zM915.677117 583.90848H1171.610049a63.983233 63.983233 0 0 1 0 127.966465H915.677117a63.983233 63.983233 0 1 1 0-127.966465z m-301.584141 56.098972C614.092976 781.387594 511.001426 896 383.824877 896S153.52697 781.387594 153.52697 640.007452s103.106454-256.007452 230.297907-256.007452 230.268099 114.567694 230.268099 256.007452z m-230.268099-255.992548C171.844089 384.014904 0 240.72704 0 64.009315s171.844089-192.009315 383.824877-192.009315 383.795069 15.29159 383.795069 192.009315-171.858993 320.005589-383.795069 320.005589z"  horiz-adv-x="1235" />

    
    <glyph glyph-name="expert" unicode="&#58914;" d="M686.998838 649.75578C686.998838 785.804142 579.514947 896 446.983852 896S207.028079 785.804142 207.028079 649.75578 314.464599 403.523402 446.983852 403.523402s240.014987 110.266914 240.014986 246.232378zM446.983852 403.535245C226.142116 403.535245 47.04572 265.73417 47.04572 95.73293S226.142116-88.941354 446.983852-88.941354s399.890761 14.684886 399.890761 184.674284S667.837431 403.535245 446.983852 403.535245zM976.693741-59.690008l-89.329108 148.648942a149.691095 149.691095 0 0 1-30.329027 171.517099 151.799087 151.799087 0 0 1-213.238755-0.62766 149.916106 149.916106 0 0 1-31.169854-167.786665L523.48737-59.690008a1.705342 1.705342 0 0 1 0.734245-2.439586 1.669814 1.669814 0 0 1 1.279006-0.189482l84.698632 16.44944a2.01325 2.01325 0 0 0 2.238261-1.184265l26.338054-79.641821a2.096149 2.096149 0 0 1 2.36853-1.184265c0.378965 0.189482 0.923727 0.343437 1.113209 0.864514l77.498301 133.217969a151.870143 151.870143 0 0 1 60.030393-0.40265l78.161489-132.886375a2.463271 2.463271 0 0 1 1.113209-0.864513 2.107992 2.107992 0 0 1 2.36853 1.184265l26.338054 79.64182a2.01325 2.01325 0 0 0 2.226418 1.184265l84.698632-16.44944a1.657971 1.657971 0 0 1 1.267164 0.260538 1.705342 1.705342 0 0 1 0.734244 2.439586z"  horiz-adv-x="1024" />

    


  </font>
</defs>
</svg>
